<svg width="1600" height="900" viewBox="0 0 1600 900" fill="none" xmlns="http://www.w3.org/2000/svg">
  <rect width="1600" height="900" fill="#101F3F"/>
  <rect width="1600" height="900" fill="url(#sky)"/>
  <path d="M0 531C204 470 402 454 588 488C783 524 959 610 1220 575C1347 558 1469 519 1600 465V900H0V531Z" fill="#193A70"/>
  <path d="M0 646C194 611 390 627 560 682C758 746 974 785 1242 741C1368 720 1483 683 1600 634V900H0V646Z" fill="#143056"/>
  <rect x="281" y="391" width="1038" height="260" fill="#E8D9B4"/>
  <rect x="241" y="651" width="1118" height="32" fill="#7A4E34"/>
  <rect x="375" y="332" width="852" height="59" fill="#B75731"/>
  <rect x="448" y="274" width="706" height="58" fill="#9F4325"/>
  <rect x="565" y="221" width="472" height="53" fill="#80311D"/>
  <path d="M673 221L735 146L797 221H673Z" fill="#C76836"/>
  <path d="M804 221L862 125L920 221H804Z" fill="#DA7B42"/>
  <rect x="958" y="165" width="12" height="113" fill="#E9DFC7"/>
  <rect x="612" y="165" width="12" height="113" fill="#E9DFC7"/>
  <rect x="130" y="344" width="24" height="281" fill="#72503A"/>
  <path d="M154 344H269V390L154 421V344Z" fill="#E0363C"/>
  <g>
    <circle cx="535" cy="561" r="31" fill="#D7A27C"/>
    <path d="M492 643C499 600 530 588 556 596C579 603 595 621 600 656H473C476 649 483 644 492 643Z" fill="#FFFFFF"/>
    <rect x="486" y="512" width="98" height="18" fill="#1E1F28"/>
    <rect x="525" y="495" width="20" height="22" fill="#1E1F28"/>
    <path d="M480 509L536 482L590 509L536 532L480 509Z" fill="#2B2C38"/>
    <path d="M501 604C520 619 545 621 564 607V634C546 649 521 650 501 636V604Z" fill="#173F78"/>
    <rect x="498" y="656" width="22" height="88" fill="#23364A"/>
    <rect x="545" y="656" width="22" height="88" fill="#23364A"/>
  </g>
  <g>
    <circle cx="670" cy="553" r="30" fill="#B7754D"/>
    <path d="M628 633C634 594 664 582 688 589C711 596 727 613 732 647H610C614 640 620 634 628 633Z" fill="#F8FBFF"/>
    <rect x="622" y="505" width="96" height="18" fill="#1E1F28"/>
    <rect x="660" y="488" width="20" height="22" fill="#1E1F28"/>
    <path d="M616 502L670 476L724 502L670 526L616 502Z" fill="#2B2C38"/>
    <path d="M638 597C656 611 679 614 697 601V628C680 642 657 643 638 630V597Z" fill="#123D76"/>
    <rect x="636" y="647" width="21" height="86" fill="#223549"/>
    <rect x="680" y="647" width="21" height="86" fill="#223549"/>
  </g>
  <g>
    <circle cx="816" cy="564" r="31" fill="#D39A74"/>
    <path d="M772 645C779 602 810 591 837 599C860 606 876 624 881 659H753C757 651 763 646 772 645Z" fill="#F9FBFE"/>
    <rect x="767" y="515" width="98" height="18" fill="#1E1F28"/>
    <rect x="806" y="498" width="20" height="22" fill="#1E1F28"/>
    <path d="M761 512L816 485L871 512L816 536L761 512Z" fill="#2B2C38"/>
    <path d="M782 606C801 620 825 622 845 609V636C826 650 801 651 782 638V606Z" fill="#113E77"/>
    <rect x="779" y="659" width="22" height="85" fill="#22364B"/>
    <rect x="825" y="659" width="22" height="85" fill="#22364B"/>
  </g>
  <g>
    <circle cx="955" cy="553" r="30" fill="#C98A5D"/>
    <path d="M913 633C919 594 949 582 973 589C996 596 1012 613 1017 647H895C899 640 905 634 913 633Z" fill="#F8FBFF"/>
    <rect x="907" y="505" width="96" height="18" fill="#1E1F28"/>
    <rect x="945" y="488" width="20" height="22" fill="#1E1F28"/>
    <path d="M901 502L955 476L1009 502L955 526L901 502Z" fill="#2B2C38"/>
    <path d="M923 597C941 611 964 614 982 601V628C965 642 942 643 923 630V597Z" fill="#123D76"/>
    <rect x="921" y="647" width="21" height="86" fill="#223549"/>
    <rect x="965" y="647" width="21" height="86" fill="#223549"/>
  </g>
  <g>
    <circle cx="1090" cy="561" r="31" fill="#D6A074"/>
    <path d="M1046 643C1053 600 1084 589 1111 597C1134 604 1150 623 1155 657H1027C1031 649 1037 644 1046 643Z" fill="#FFFFFF"/>
    <rect x="1041" y="512" width="98" height="18" fill="#1E1F28"/>
    <rect x="1080" y="495" width="20" height="22" fill="#1E1F28"/>
    <path d="M1035 509L1090 482L1145 509L1090 533L1035 509Z" fill="#2B2C38"/>
    <path d="M1056 604C1075 618 1099 620 1119 607V634C1100 648 1075 649 1056 636V604Z" fill="#173F78"/>
    <rect x="1053" y="657" width="22" height="87" fill="#23364A"/>
    <rect x="1099" y="657" width="22" height="87" fill="#23364A"/>
  </g>
  <path d="M598 439C702 387 839 386 958 435" stroke="#FFD770" stroke-width="10" stroke-linecap="round"/>
  <circle cx="777" cy="420" r="15" fill="#FFD770"/>
  <circle cx="867" cy="414" r="11" fill="#FFD770"/>
  <rect width="1600" height="900" fill="url(#fade)"/>
  <defs>
    <linearGradient id="sky" x1="800" y1="0" x2="800" y2="900" gradientUnits="userSpaceOnUse">
      <stop stop-color="#263E7D"/>
      <stop offset="0.55" stop-color="#4E73B7"/>
      <stop offset="1" stop-color="#8DB7D8"/>
    </linearGradient>
    <linearGradient id="fade" x1="0" y1="450" x2="1600" y2="450" gradientUnits="userSpaceOnUse">
      <stop stop-color="#07121E" stop-opacity="0.44"/>
      <stop offset="0.45" stop-color="#07121E" stop-opacity="0.08"/>
      <stop offset="1" stop-color="#07121E" stop-opacity="0.28"/>
    </linearGradient>
  </defs>
</svg>
