<svg width="1600" height="900" viewBox="0 0 1600 900" fill="none" xmlns="http://www.w3.org/2000/svg">
  <rect width="1600" height="900" fill="#0A1C3A"/>
  <rect width="1600" height="900" fill="url(#sky)"/>
  <circle cx="1290" cy="165" r="88" fill="#FFD37A"/>
  <path d="M0 515C182 450 333 432 479 446C656 463 760 541 924 544C1126 548 1267 421 1600 377V900H0V515Z" fill="#143A6E"/>
  <path d="M0 611C228 546 419 563 575 614C756 673 900 720 1129 672C1287 639 1398 570 1600 548V900H0V611Z" fill="#1B4B87"/>
  <path d="M256 367H1008V644H256V367Z" fill="#F4E6C2"/>
  <path d="M313 307H949L1008 367H256L313 307Z" fill="#C96E3B"/>
  <path d="M412 250H852V307H412V250Z" fill="#B24E2A"/>
  <path d="M479 177H785V250H479V177Z" fill="#953C27"/>
  <path d="M623 102H641V177H623V102Z" fill="#F4E6C2"/>
  <path d="M697 102H715V177H697V102Z" fill="#F4E6C2"/>
  <path d="M774 102H792V177H774V102Z" fill="#F4E6C2"/>
  <path d="M592 86L632 38L672 86H592Z" fill="#C96E3B"/>
  <path d="M666 86L706 24L746 86H666Z" fill="#D97D43"/>
  <path d="M742 86L782 38L822 86H742Z" fill="#C96E3B"/>
  <rect x="358" y="417" width="87" height="102" rx="4" fill="#7FB5E8"/>
  <rect x="498" y="417" width="87" height="102" rx="4" fill="#7FB5E8"/>
  <rect x="639" y="417" width="87" height="102" rx="4" fill="#7FB5E8"/>
  <rect x="779" y="417" width="87" height="102" rx="4" fill="#7FB5E8"/>
  <rect x="533" y="544" width="204" height="100" fill="#704D35"/>
  <rect x="572" y="579" width="51" height="65" fill="#5B3927"/>
  <rect x="647" y="579" width="51" height="65" fill="#5B3927"/>
  <rect x="0" y="644" width="1600" height="256" fill="#274D2F"/>
  <path d="M0 662H1600" stroke="#9ECF73" stroke-width="5" stroke-linecap="round" stroke-dasharray="1 20"/>
  <path d="M1161 322H1169V618H1161V322Z" fill="#5A3A26"/>
  <path d="M1170 322H1207V350L1169 360L1170 322Z" fill="#E0343C"/>
  <path d="M0 720C202 683 379 704 549 753C719 801 893 820 1108 779C1308 741 1438 688 1600 674V900H0V720Z" fill="#1E3D24"/>
  <path d="M162 650C148 590 170 523 218 470C240 447 269 426 301 415C291 459 304 509 337 548C294 569 256 607 235 651L162 650Z" fill="#224F35"/>
  <path d="M137 649C148 575 127 504 84 446C62 416 35 395 8 382C18 431 4 488 -30 531C18 558 56 603 73 650L137 649Z" fill="#2D6D4A"/>
  <rect x="207" y="590" width="19" height="95" fill="#563A28"/>
  <path d="M1376 621C1360 569 1376 509 1422 468C1448 445 1482 426 1518 418C1508 459 1519 507 1549 540C1493 559 1455 589 1428 624L1376 621Z" fill="#2D6D4A"/>
  <rect x="1447" y="571" width="20" height="91" fill="#563A28"/>
  <g>
    <circle cx="497" cy="623" r="28" fill="#D6A074"/>
    <path d="M464 681C470 641 500 631 531 642C557 651 572 676 572 719H439C441 700 447 689 464 681Z" fill="#EDF2F7"/>
    <path d="M479 650C498 669 523 669 547 649V676C523 695 498 694 479 676V650Z" fill="#173E77"/>
    <rect x="470" y="719" width="24" height="84" fill="#1A2C42"/>
    <rect x="519" y="719" width="24" height="84" fill="#1A2C42"/>
  </g>
  <g>
    <circle cx="682" cy="611" r="25" fill="#C98A5D"/>
    <path d="M648 677C656 633 691 621 718 633C742 643 757 667 757 708H621C623 696 633 684 648 677Z" fill="#FFFFFF"/>
    <path d="M659 638C679 655 699 657 715 645V671C696 687 675 688 659 672V638Z" fill="#0F3B74"/>
    <rect x="655" y="708" width="23" height="80" fill="#223248"/>
    <rect x="704" y="708" width="23" height="80" fill="#223248"/>
  </g>
  <g>
    <circle cx="824" cy="629" r="27" fill="#D7A37A"/>
    <path d="M785 693C797 649 830 640 857 653C879 663 892 687 893 727H761C764 713 770 699 785 693Z" fill="#F9FAFB"/>
    <path d="M797 658C815 675 839 676 859 660V690C841 705 815 706 797 690V658Z" fill="#0D3A72"/>
    <rect x="792" y="727" width="23" height="76" fill="#24354A"/>
    <rect x="842" y="727" width="23" height="76" fill="#24354A"/>
  </g>
  <rect width="1600" height="900" fill="url(#fade)"/>
  <defs>
    <linearGradient id="sky" x1="800" y1="0" x2="800" y2="900" gradientUnits="userSpaceOnUse">
      <stop stop-color="#193B76"/>
      <stop offset="0.55" stop-color="#3165A8"/>
      <stop offset="1" stop-color="#5B97C8"/>
    </linearGradient>
    <linearGradient id="fade" x1="0" y1="450" x2="1600" y2="450" gradientUnits="userSpaceOnUse">
      <stop stop-color="#07111F" stop-opacity="0.45"/>
      <stop offset="0.4" stop-color="#07111F" stop-opacity="0.12"/>
      <stop offset="1" stop-color="#07111F" stop-opacity="0.35"/>
    </linearGradient>
  </defs>
</svg>
