<svg width="1600" height="900" viewBox="0 0 1600 900" fill="none" xmlns="http://www.w3.org/2000/svg">
  <rect width="1600" height="900" fill="#0F2341"/>
  <rect width="1600" height="900" fill="url(#sky)"/>
  <circle cx="1276" cy="146" r="72" fill="#FFF0B2"/>
  <path d="M0 495C253 442 453 457 624 506C827 565 1009 627 1297 558C1385 537 1480 502 1600 462V900H0V495Z" fill="#2D6A4A"/>
  <path d="M0 610C183 569 409 569 597 621C785 673 996 711 1267 674C1388 658 1495 631 1600 597V900H0V610Z" fill="#244E35"/>
  <path d="M270 346H1035V598H270V346Z" fill="#F4E6C3"/>
  <path d="M313 294H994L1035 346H270L313 294Z" fill="#C86E3B"/>
  <path d="M392 245H911V294H392V245Z" fill="#A94A29"/>
  <rect x="343" y="401" width="111" height="105" rx="5" fill="#8BC1ED"/>
  <rect x="499" y="401" width="111" height="105" rx="5" fill="#8BC1ED"/>
  <rect x="656" y="401" width="111" height="105" rx="5" fill="#8BC1ED"/>
  <rect x="812" y="401" width="111" height="105" rx="5" fill="#8BC1ED"/>
  <rect x="585" y="527" width="138" height="71" fill="#704D35"/>
  <path d="M1116 309H1126V593H1116V309Z" fill="#61422D"/>
  <path d="M1126 309H1170V340L1126 352V309Z" fill="#E03238"/>
  <path d="M1208 690C1200 629 1220 558 1267 507C1292 479 1325 458 1360 446C1351 490 1360 542 1393 578C1343 598 1297 639 1274 690H1208Z" fill="#2D6D4A"/>
  <rect x="1270" y="610" width="23" height="104" fill="#5A3A26"/>
  <path d="M152 664C142 610 157 555 197 512C220 489 248 470 278 459C271 498 279 541 307 573C265 592 228 623 206 665L152 664Z" fill="#2D6D4A"/>
  <rect x="215" y="599" width="19" height="91" fill="#5A3A26"/>
  <g>
    <circle cx="593" cy="556" r="33" fill="#D7A27C"/>
    <path d="M548 637C555 594 588 581 616 590C640 597 656 617 661 653H529C533 645 539 639 548 637Z" fill="#FFFFFF"/>
    <path d="M561 597C579 611 601 615 620 602V631C601 645 578 646 561 633V597Z" fill="#143F78"/>
    <rect x="558" y="653" width="23" height="86" fill="#24364A"/>
    <rect x="606" y="653" width="23" height="86" fill="#24364A"/>
    <path d="M591 617L607 635" stroke="#E66B6B" stroke-width="8" stroke-linecap="round"/>
  </g>
  <g>
    <circle cx="730" cy="547" r="31" fill="#BE7A51"/>
    <path d="M688 626C694 587 723 575 746 582C768 588 784 607 789 641H669C672 634 678 628 688 626Z" fill="#F8FBFF"/>
    <path d="M699 589C716 603 736 607 753 594V621C736 635 716 636 699 624V589Z" fill="#103D75"/>
    <rect x="697" y="641" width="21" height="84" fill="#23354A"/>
    <rect x="742" y="641" width="21" height="84" fill="#23354A"/>
    <path d="M715 615H732" stroke="#E66B6B" stroke-width="8" stroke-linecap="round"/>
  </g>
  <g>
    <circle cx="852" cy="560" r="32" fill="#D39A74"/>
    <path d="M808 640C815 597 846 584 872 592C895 599 911 619 916 656H789C792 648 799 642 808 640Z" fill="#F8FBFF"/>
    <path d="M821 600C838 615 861 618 879 605V634C860 648 838 649 821 636V600Z" fill="#0F3C74"/>
    <rect x="818" y="656" width="22" height="83" fill="#23364A"/>
    <rect x="864" y="656" width="22" height="83" fill="#23364A"/>
  </g>
  <path d="M648 587C665 567 696 566 717 583" stroke="#F7D66D" stroke-width="10" stroke-linecap="round"/>
  <rect width="1600" height="900" fill="url(#fade)"/>
  <defs>
    <linearGradient id="sky" x1="800" y1="0" x2="800" y2="900" gradientUnits="userSpaceOnUse">
      <stop stop-color="#28559A"/>
      <stop offset="0.6" stop-color="#5B9BCB"/>
      <stop offset="1" stop-color="#9FC7D6"/>
    </linearGradient>
    <linearGradient id="fade" x1="0" y1="450" x2="1600" y2="450" gradientUnits="userSpaceOnUse">
      <stop stop-color="#07121E" stop-opacity="0.42"/>
      <stop offset="0.45" stop-color="#07121E" stop-opacity="0.08"/>
      <stop offset="1" stop-color="#07121E" stop-opacity="0.28"/>
    </linearGradient>
  </defs>
</svg>
