<svg width="1600" height="900" viewBox="0 0 1600 900" fill="none" xmlns="http://www.w3.org/2000/svg">
  <rect width="1600" height="900" fill="#102647"/>
  <rect x="0" y="0" width="1600" height="560" fill="#E8F2FF"/>
  <rect x="0" y="560" width="1600" height="340" fill="#BF9E74"/>
  <rect x="119" y="111" width="444" height="254" rx="10" fill="#C6DDF7"/>
  <rect x="148" y="141" width="386" height="194" rx="8" fill="#A8D3F0"/>
  <path d="M175 303C268 251 330 245 402 259C470 272 497 302 534 318V335H148V303H175Z" fill="#7CC36D"/>
  <path d="M252 282H273V335H252V282Z" fill="#7D5A40"/>
  <path d="M424 272H444V335H424V272Z" fill="#7D5A40"/>
  <circle cx="1034" cy="172" r="33" fill="#F0C33C"/>
  <path d="M1191 107H1474V330H1191V107Z" fill="#2E4B74"/>
  <rect x="1221" y="138" width="222" height="161" rx="4" fill="#183252"/>
  <path d="M1221 170H1443" stroke="#95B6E3" stroke-width="6"/>
  <path d="M1221 214H1394" stroke="#95B6E3" stroke-width="6"/>
  <path d="M1221 256H1410" stroke="#95B6E3" stroke-width="6"/>
  <path d="M1262 238C1278 212 1312 205 1335 223C1348 199 1383 194 1404 217C1419 209 1443 219 1448 243C1454 271 1431 293 1403 297C1387 312 1363 315 1344 307C1326 317 1298 316 1281 302C1250 300 1232 264 1262 238Z" fill="#E8F2FF"/>
  <path d="M443 426H1079V716H443V426Z" fill="#8A5A3B"/>
  <rect x="474" y="455" width="575" height="223" fill="#A56E48"/>
  <rect x="727" y="426" width="54" height="290" fill="#71492F"/>
  <rect x="355" y="699" width="856" height="27" fill="#6B452F"/>
  <g>
    <circle cx="666" cy="470" r="43" fill="#C98A5D"/>
    <path d="M604 569C617 512 662 495 704 508C740 519 765 552 769 615H561C565 594 579 576 604 569Z" fill="#FFFFFF"/>
    <path d="M623 518C653 543 684 545 712 524V565C685 590 650 591 623 566V518Z" fill="#183E77"/>
    <rect x="615" y="614" width="33" height="116" fill="#203348"/>
    <rect x="681" y="614" width="33" height="116" fill="#203348"/>
    <rect x="746" y="555" width="23" height="81" fill="#D6E8FF"/>
    <ellipse cx="757" cy="549" rx="18" ry="20" fill="#58A8F5"/>
    <circle cx="749" cy="544" r="5" fill="#E8F6FF"/>
    <circle cx="762" cy="552" r="4" fill="#E8F6FF"/>
  </g>
  <g>
    <circle cx="865" cy="533" r="34" fill="#D8A17B"/>
    <path d="M813 611C823 566 857 555 887 563C913 570 930 593 934 639H766C771 625 783 615 813 611Z" fill="#F8FBFF"/>
    <path d="M826 569C847 585 873 588 891 573V606C871 623 846 624 826 607V569Z" fill="#0D3B74"/>
    <rect x="819" y="639" width="27" height="92" fill="#223549"/>
    <rect x="874" y="639" width="27" height="92" fill="#223549"/>
  </g>
  <g>
    <circle cx="998" cy="544" r="32" fill="#B8754C"/>
    <path d="M949 621C958 579 990 568 1016 575C1041 582 1058 602 1061 647H907C912 636 921 625 949 621Z" fill="#F8FBFF"/>
    <path d="M961 581C981 597 1004 599 1020 586V618C1000 635 979 636 961 619V581Z" fill="#113E78"/>
    <rect x="955" y="647" width="25" height="90" fill="#23364C"/>
    <rect x="1006" y="647" width="25" height="90" fill="#23364C"/>
  </g>
  <rect x="928" y="510" width="70" height="18" rx="9" fill="#7D5039"/>
  <rect x="852" y="506" width="70" height="18" rx="9" fill="#7D5039"/>
  <rect x="771" y="502" width="70" height="18" rx="9" fill="#7D5039"/>
  <rect width="1600" height="900" fill="url(#fade)"/>
  <defs>
    <linearGradient id="fade" x1="0" y1="450" x2="1600" y2="450" gradientUnits="userSpaceOnUse">
      <stop stop-color="#081421" stop-opacity="0.42"/>
      <stop offset="0.45" stop-color="#081421" stop-opacity="0.08"/>
      <stop offset="1" stop-color="#081421" stop-opacity="0.28"/>
    </linearGradient>
  </defs>
</svg>
